<svg width="81" height="81" viewBox="0 0 81 81" fill="none" xmlns="http://www.w3.org/2000/svg">
<rect x="8" y="8" width="65" height="65" rx="32.5" fill="#51B56D"/>
<path d="M33.4759 28.5359C33.8082 28.3648 34.1812 28.2887 34.5539 28.3159C34.9266 28.3432 35.2846 28.4727 35.5884 28.6903L49.8072 38.8465C50.0705 39.0344 50.2851 39.2825 50.4332 39.5701C50.5813 39.8577 50.6586 40.1765 50.6586 40.5C50.6586 40.8235 50.5813 41.1423 50.4332 41.4298C50.2851 41.7174 50.0705 41.9655 49.8072 42.1534L35.5884 52.3097C35.2847 52.527 34.9269 52.6565 34.5544 52.6837C34.1819 52.711 33.809 52.6349 33.4769 52.4641C33.1448 52.2932 32.8662 52.034 32.6718 51.7151C32.4774 51.3961 32.3747 51.0297 32.375 50.6562V30.3437C32.3746 29.9703 32.4772 29.604 32.6714 29.2851C32.8656 28.9662 33.144 28.7069 33.4759 28.5359Z" fill="white"/>
<rect x="4" y="4" width="73" height="73" rx="36.5" stroke="#51B56D" stroke-opacity="0.5" stroke-width="8"/>
</svg>
