<svg width="22" height="14" viewBox="0 0 22 14" fill="none" xmlns="http://www.w3.org/2000/svg">
<path d="M1.3789 1.28906H20.6211C20.7249 1.28906 20.7794 1.33942 20.8005 1.37944C20.8116 1.40043 20.8138 1.41835 20.8126 1.43124C20.8116 1.44174 20.8074 1.46113 20.7838 1.48862L11.1651 12.6422C11.1649 12.6424 11.1647 12.6426 11.1645 12.6429C11.1306 12.6813 11.0723 12.7102 10.9989 12.7102C10.925 12.7102 10.8685 12.6811 10.8366 12.6442L10.458 12.9707L10.8366 12.6442L1.21616 1.48862C1.21609 1.48854 1.21602 1.48845 1.21595 1.48837C1.19252 1.46102 1.18838 1.44171 1.18738 1.43124C1.18615 1.41835 1.18837 1.40043 1.19947 1.37944C1.22062 1.33942 1.27506 1.28906 1.3789 1.28906Z" stroke="black"/>
</svg>
