<svg width="80" height="80" viewBox="0 0 80 80" fill="none" xmlns="http://www.w3.org/2000/svg">
<path d="M10.5244 39.562L8.47929 38.8803L8.55084 41.0348C8.72823 46.3761 10.2623 51.5844 13.0086 56.1691C15.755 60.7538 19.6231 64.564 24.2487 67.2408L26.5 68.5436V65.9425V60V59.3787L26.0607 58.9393L19.2932 52.1718L19.293 52.1717C19.1055 51.9843 19.0002 51.7301 19 51.465C19 51.4649 19 51.4648 19 51.4647V48.2575V47.8033L18.7481 47.4254L14.6431 41.2679L14.3576 40.8397L13.8694 40.677L10.5244 39.562ZM32.1471 68.8129L31.6208 70.3909L33.2446 70.7518C35.4617 71.2445 37.7257 71.4954 39.997 71.5H40.0014C44.9627 71.4954 49.8525 70.3171 54.2714 68.0613C58.6902 65.8056 62.5127 62.5365 65.4266 58.521L65.7964 58.0112L65.6916 57.3902L63.9791 47.2502L63.8522 46.4989L63.1707 46.1583L54.8132 41.9808L54.8131 41.9807C54.6223 41.8854 54.4671 41.7316 54.3699 41.5418C54.2728 41.3521 54.2389 41.1362 54.2731 40.9257L54.2733 40.9245L56.0753 29.783C56.1238 29.5648 56.2441 29.3689 56.4173 29.2269C56.5959 29.0803 56.8198 29.0001 57.0509 29H67.235H69.5785L68.5972 26.8719C66.8807 23.1493 64.4559 19.7965 61.4581 17.0006L60.1664 15.7958L59.1868 17.2657L56.9947 20.555C56.9034 20.6919 56.7797 20.8042 56.6345 20.8818C56.4894 20.9594 56.3273 21 56.1627 21H56.1625H52.5C52.2348 21 51.9804 20.8946 51.7929 20.7071C51.6054 20.5196 51.5 20.2652 51.5 20V11.75V10.6954L50.5077 10.3385C46.4338 8.87325 42.0993 8.27319 37.7806 8.57663C33.4619 8.88007 29.2539 10.0803 25.425 12.1009L23.9556 12.8763L24.8766 14.259L27.5891 18.3315L28.0343 19H28.8375H35.6925H36.5629L36.9948 18.2443L38.3881 15.8065L40.1235 16.7982L31.1976 32.4209L31 32.7667V33.165V38.5H29V35V33.5H27.5H23.535H22.9137L22.4744 33.9393L17.1569 39.2568L16.2875 40.1262L16.9692 41.1492L20.0892 45.8317L20.5345 46.5H21.3375H33.6625H33.6627C33.8273 46.5 33.9894 46.5406 34.1345 46.6182C34.2797 46.6958 34.4034 46.8081 34.4947 46.945L38.0219 52.2369L38.0224 52.2378C38.1125 52.3727 38.1684 52.5275 38.1853 52.6888C38.2022 52.8502 38.1796 53.0132 38.1194 53.1638L33.6073 64.4429L33.591 64.4837L33.5771 64.5254L32.1471 68.8129ZM21.3884 12.1458C26.8972 8.4649 33.3738 6.50017 39.9991 6.5C48.8809 6.51035 57.396 10.0432 63.6764 16.3236C69.957 22.6042 73.4899 31.1196 73.5 40.0017C73.4997 46.6268 71.535 53.103 67.8543 58.6116C64.1732 64.1206 58.9412 68.4144 52.8199 70.95C46.6986 73.4855 39.9629 74.1489 33.4645 72.8563C26.9661 71.5637 20.997 68.3731 16.3119 63.6881C11.6269 59.003 8.43631 53.0339 7.14371 46.5355C5.8511 40.0372 6.51452 33.3014 9.05005 27.1801C11.5856 21.0588 15.8794 15.8268 21.3884 12.1458Z" fill="#51B56D" stroke="#333333" stroke-width="3"/>
</svg>
