<svg width="80" height="80" viewBox="0 0 80 80" fill="none" xmlns="http://www.w3.org/2000/svg">
<path d="M14.8704 71.8332C15.0295 67.0395 15.5869 62.2666 16.537 57.5635L16.539 57.5536L16.5409 57.5437C17.5033 52.4255 19.2129 47.4767 21.6148 42.856C22.8757 40.6845 24.3576 38.6492 26.037 36.7825C27.7882 34.9237 29.769 33.2953 31.9314 31.9366L31.9314 31.9366L31.9387 31.932C36.4797 29.0421 41.5727 27.1295 46.8934 26.3159L46.7238 23.3343C40.6846 23.1042 34.6754 24.2917 29.1776 26.8017C23.442 29.4096 18.5345 33.5456 14.9928 38.7567L14.9804 38.7749L14.9686 38.7934C14.1491 40.0788 13.3819 41.3961 12.6689 42.7422C11.9175 39.1933 11.8481 35.5215 12.4776 31.9251L12.4777 31.9242C13.1253 28.2107 14.6915 24.7181 17.0336 21.7645C19.3757 18.8109 22.4195 16.4901 25.8877 15.0133L25.901 15.0076L25.9142 15.0017C32.6261 11.9898 40.067 10.9873 47.3367 12.1154L47.3505 12.1176L47.3643 12.1194C54.7858 13.1303 62.341 12.3767 69.4166 9.91991L71.6189 9.1858L71.8351 11.4558C71.8386 11.5687 71.8474 11.7404 71.8589 11.9665C71.9788 14.3173 72.3986 22.5458 70.3647 31.7254C68.0737 42.0657 62.7496 53.2113 50.7131 58.3528C46.3845 60.1845 41.7326 61.1299 37.0323 61.1332L37.0227 61.1332L37.0131 61.1333C32.0133 61.2008 27.0792 59.9892 22.6794 57.6133L20.9113 56.6586L20.4987 58.6251C19.5842 62.9831 18.9513 67.3949 18.6035 71.8332H14.8704Z" fill="#51B56D" stroke="#333333" stroke-width="3"/>
</svg>
