<svg width="90" height="90" viewBox="0 0 90 90" fill="none" xmlns="http://www.w3.org/2000/svg">
<rect x="2.5" y="2.5" width="85" height="85" rx="7.5" fill="#51B56D" stroke="#51B56D" stroke-width="5"/>
<path d="M65.8334 27.1042L65.5834 24.4792L63.0834 25.3126C58.7988 26.8012 54.2235 27.258 49.7292 26.6459C45.0066 25.913 40.1728 26.5643 35.8125 28.5209C33.501 29.5052 31.4724 31.052 29.9114 33.0205C28.3504 34.989 27.3066 37.3168 26.875 39.7917C26.3154 42.989 26.5954 46.2768 27.6875 49.3334C28.3908 47.7461 29.2125 46.214 30.1459 44.7501C32.2629 41.6352 35.1964 39.163 38.625 37.6042C41.928 36.0962 45.5383 35.3827 49.1667 35.5209C45.7126 36.049 42.4063 37.2907 39.4584 39.1667C38.0364 40.0602 36.7343 41.1313 35.5834 42.3542C34.4827 43.5766 33.5122 44.9102 32.6875 46.3334C31.1386 49.3084 30.0365 52.4954 29.4167 55.7917C28.7486 59.0987 28.386 62.4601 28.3334 65.8334H32.5C32.6959 62.8081 33.1066 59.8005 33.7292 56.8334C36.6197 58.3942 39.8612 59.1903 43.1459 59.1459C46.2093 59.1438 49.2413 58.5275 52.0625 57.3334C67.9167 50.5626 65.8334 28.0417 65.8334 27.1042Z" fill="white"/>
</svg>
