<svg width="40" height="40" viewBox="0 0 40 40" fill="none" xmlns="http://www.w3.org/2000/svg">
<path fill-rule="evenodd" clip-rule="evenodd" d="M10 11.6709C10 11.2278 10.176 10.8028 10.4894 10.4894C10.8028 10.176 11.2278 10 11.6709 10H28.3273C28.5469 9.99964 28.7644 10.0426 28.9674 10.1264C29.1704 10.2102 29.3548 10.3333 29.5102 10.4885C29.6656 10.6437 29.7888 10.828 29.8729 11.0309C29.9569 11.2338 30.0001 11.4513 30 11.6709V28.3273C30.0002 28.5469 29.9572 28.7645 29.8732 28.9675C29.7893 29.1705 29.6662 29.3549 29.5109 29.5103C29.3556 29.6656 29.1713 29.7889 28.9683 29.8729C28.7654 29.9569 28.5478 30.0001 28.3282 30H11.6709C11.4514 30 11.2341 29.9568 11.0313 29.8727C10.8285 29.7887 10.6442 29.6655 10.4891 29.5103C10.3339 29.355 10.2108 29.1707 10.1269 28.9679C10.043 28.7651 9.99988 28.5477 10 28.3282V11.6709ZM17.9164 17.6255H20.6245V18.9855C21.0155 18.2036 22.0155 17.5 23.5182 17.5C26.3991 17.5 27.0818 19.0573 27.0818 21.9145V27.2073H24.1664V22.5655C24.1664 20.9382 23.7755 20.02 22.7827 20.02C21.4055 20.02 20.8327 21.01 20.8327 22.5655V27.2073H17.9164V17.6255ZM12.9164 27.0827H15.8327V17.5H12.9164V27.0818V27.0827ZM16.25 14.3745C16.2555 14.6242 16.2111 14.8725 16.1193 15.1048C16.0276 15.3371 15.8903 15.5488 15.7157 15.7273C15.541 15.9058 15.3325 16.0477 15.1022 16.1446C14.872 16.2414 14.6248 16.2913 14.375 16.2913C14.1252 16.2913 13.878 16.2414 13.6478 16.1446C13.4175 16.0477 13.209 15.9058 13.0343 15.7273C12.8597 15.5488 12.7224 15.3371 12.6307 15.1048C12.5389 14.8725 12.4945 14.6242 12.5 14.3745C12.5108 13.8844 12.7131 13.418 13.0635 13.0752C13.414 12.7323 13.8847 12.5404 14.375 12.5404C14.8653 12.5404 15.336 12.7323 15.6865 13.0752C16.0369 13.418 16.2392 13.8844 16.25 14.3745Z" fill="#51B56D"/>
<rect x="0.5" y="0.5" width="39" height="39" rx="19.5" stroke="#51B56D"/>
</svg>
