<svg width="60" height="60" viewBox="0 0 60 60" fill="none" xmlns="http://www.w3.org/2000/svg">
<circle cx="30" cy="30" r="30" fill="#70D38C"/>
<circle cx="30" cy="30" r="25" fill="#51B56D"/>
<path d="M18.6665 29.024C18.6665 26.256 19.1625 24.088 20.1545 22.52C21.1625 20.952 22.8265 20.168 25.1465 20.168C27.4665 20.168 29.1225 20.952 30.1145 22.52C31.1225 24.088 31.6265 26.256 31.6265 29.024C31.6265 31.808 31.1225 33.992 30.1145 35.576C29.1225 37.16 27.4665 37.952 25.1465 37.952C22.8265 37.952 21.1625 37.16 20.1545 35.576C19.1625 33.992 18.6665 31.808 18.6665 29.024ZM28.3145 29.024C28.3145 27.84 28.2345 26.848 28.0745 26.048C27.9305 25.232 27.6265 24.568 27.1625 24.056C26.7145 23.544 26.0425 23.288 25.1465 23.288C24.2505 23.288 23.5705 23.544 23.1065 24.056C22.6585 24.568 22.3545 25.232 22.1945 26.048C22.0505 26.848 21.9785 27.84 21.9785 29.024C21.9785 30.24 22.0505 31.264 22.1945 32.096C22.3385 32.912 22.6425 33.576 23.1065 34.088C23.5705 34.584 24.2505 34.832 25.1465 34.832C26.0425 34.832 26.7225 34.584 27.1865 34.088C27.6505 33.576 27.9545 32.912 28.0985 32.096C28.2425 31.264 28.3145 30.24 28.3145 29.024ZM33.7742 23.6V20.504H39.5582V38H36.1022V23.6H33.7742Z" fill="white"/>
</svg>
