<svg width="60" height="60" viewBox="0 0 60 60" fill="none" xmlns="http://www.w3.org/2000/svg">
<circle cx="30" cy="30" r="30" fill="#70D38C"/>
<circle cx="30" cy="30" r="25" fill="#51B56D"/>
<path d="M14.5806 29.024C14.5806 26.256 15.0766 24.088 16.0686 22.52C17.0766 20.952 18.7406 20.168 21.0606 20.168C23.3806 20.168 25.0366 20.952 26.0286 22.52C27.0366 24.088 27.5406 26.256 27.5406 29.024C27.5406 31.808 27.0366 33.992 26.0286 35.576C25.0366 37.16 23.3806 37.952 21.0606 37.952C18.7406 37.952 17.0766 37.16 16.0686 35.576C15.0766 33.992 14.5806 31.808 14.5806 29.024ZM24.2286 29.024C24.2286 27.84 24.1486 26.848 23.9886 26.048C23.8446 25.232 23.5406 24.568 23.0766 24.056C22.6286 23.544 21.9566 23.288 21.0606 23.288C20.1646 23.288 19.4846 23.544 19.0206 24.056C18.5726 24.568 18.2686 25.232 18.1086 26.048C17.9646 26.848 17.8926 27.84 17.8926 29.024C17.8926 30.24 17.9646 31.264 18.1086 32.096C18.2526 32.912 18.5566 33.576 19.0206 34.088C19.4846 34.584 20.1646 34.832 21.0606 34.832C21.9566 34.832 22.6366 34.584 23.1006 34.088C23.5646 33.576 23.8686 32.912 24.0126 32.096C24.1566 31.264 24.2286 30.24 24.2286 29.024ZM29.9522 34.592V31.952L37.8002 20.72H41.7122V31.664H43.8242V34.592H41.7122V38H38.3522V34.592H29.9522ZM38.5682 24.32L33.6482 31.664H38.5682V24.32Z" fill="white"/>
</svg>
