<svg width="60" height="60" viewBox="0 0 60 60" fill="none" xmlns="http://www.w3.org/2000/svg">
<circle cx="30" cy="30" r="30" fill="#70D38C"/>
<circle cx="30" cy="30" r="25" fill="#51B56D"/>
<path d="M15.3306 29.024C15.3306 26.256 15.8266 24.088 16.8186 22.52C17.8266 20.952 19.4906 20.168 21.8106 20.168C24.1306 20.168 25.7866 20.952 26.7786 22.52C27.7866 24.088 28.2906 26.256 28.2906 29.024C28.2906 31.808 27.7866 33.992 26.7786 35.576C25.7866 37.16 24.1306 37.952 21.8106 37.952C19.4906 37.952 17.8266 37.16 16.8186 35.576C15.8266 33.992 15.3306 31.808 15.3306 29.024ZM24.9786 29.024C24.9786 27.84 24.8986 26.848 24.7386 26.048C24.5946 25.232 24.2906 24.568 23.8266 24.056C23.3786 23.544 22.7066 23.288 21.8106 23.288C20.9146 23.288 20.2346 23.544 19.7706 24.056C19.3226 24.568 19.0186 25.232 18.8586 26.048C18.7146 26.848 18.6426 27.84 18.6426 29.024C18.6426 30.24 18.7146 31.264 18.8586 32.096C19.0026 32.912 19.3066 33.576 19.7706 34.088C20.2346 34.584 20.9146 34.832 21.8106 34.832C22.7066 34.832 23.3866 34.584 23.8506 34.088C24.3146 33.576 24.6186 32.912 24.7626 32.096C24.9066 31.264 24.9786 30.24 24.9786 29.024ZM30.8942 25.112C30.9742 23.512 31.5342 22.28 32.5742 21.416C33.6302 20.536 35.0142 20.096 36.7262 20.096C37.8942 20.096 38.8942 20.304 39.7262 20.72C40.5582 21.12 41.1822 21.672 41.5982 22.376C42.0302 23.064 42.2462 23.848 42.2462 24.728C42.2462 25.736 41.9822 26.592 41.4542 27.296C40.9422 27.984 40.3262 28.448 39.6062 28.688V28.784C40.5342 29.072 41.2542 29.584 41.7662 30.32C42.2942 31.056 42.5582 32 42.5582 33.152C42.5582 34.112 42.3342 34.968 41.8862 35.72C41.4542 36.472 40.8062 37.064 39.9422 37.496C39.0942 37.912 38.0702 38.12 36.8702 38.12C35.0622 38.12 33.5902 37.664 32.4542 36.752C31.3182 35.84 30.7182 34.496 30.6542 32.72H33.9182C33.9502 33.504 34.2142 34.136 34.7102 34.616C35.2222 35.08 35.9182 35.312 36.7982 35.312C37.6142 35.312 38.2382 35.088 38.6702 34.64C39.1182 34.176 39.3422 33.584 39.3422 32.864C39.3422 31.904 39.0382 31.216 38.4302 30.8C37.8222 30.384 36.8782 30.176 35.5982 30.176H34.9022V27.416H35.5982C37.8702 27.416 39.0062 26.656 39.0062 25.136C39.0062 24.448 38.7982 23.912 38.3822 23.528C37.9822 23.144 37.3982 22.952 36.6302 22.952C35.8782 22.952 35.2942 23.16 34.8782 23.576C34.4782 23.976 34.2462 24.488 34.1822 25.112H30.8942Z" fill="white"/>
</svg>
