<svg width="60" height="60" viewBox="0 0 60 60" fill="none" xmlns="http://www.w3.org/2000/svg">
<circle cx="30" cy="30" r="30" fill="#70D38C"/>
<circle cx="30" cy="30" r="25" fill="#51B56D"/>
<path d="M15.6236 29.024C15.6236 26.256 16.1196 24.088 17.1116 22.52C18.1196 20.952 19.7836 20.168 22.1036 20.168C24.4236 20.168 26.0796 20.952 27.0716 22.52C28.0796 24.088 28.5836 26.256 28.5836 29.024C28.5836 31.808 28.0796 33.992 27.0716 35.576C26.0796 37.16 24.4236 37.952 22.1036 37.952C19.7836 37.952 18.1196 37.16 17.1116 35.576C16.1196 33.992 15.6236 31.808 15.6236 29.024ZM25.2716 29.024C25.2716 27.84 25.1916 26.848 25.0316 26.048C24.8876 25.232 24.5836 24.568 24.1196 24.056C23.6716 23.544 22.9996 23.288 22.1036 23.288C21.2076 23.288 20.5276 23.544 20.0636 24.056C19.6156 24.568 19.3116 25.232 19.1516 26.048C19.0076 26.848 18.9356 27.84 18.9356 29.024C18.9356 30.24 19.0076 31.264 19.1516 32.096C19.2956 32.912 19.5996 33.576 20.0636 34.088C20.5276 34.584 21.2076 34.832 22.1036 34.832C22.9996 34.832 23.6796 34.584 24.1436 34.088C24.6076 33.576 24.9116 32.912 25.0556 32.096C25.1996 31.264 25.2716 30.24 25.2716 29.024ZM32.1952 34.208C33.7312 32.928 34.9552 31.864 35.8672 31.016C36.7792 30.152 37.5392 29.256 38.1472 28.328C38.7552 27.4 39.0592 26.488 39.0592 25.592C39.0592 24.776 38.8672 24.136 38.4832 23.672C38.0992 23.208 37.5072 22.976 36.7072 22.976C35.9072 22.976 35.2912 23.248 34.8592 23.792C34.4272 24.32 34.2032 25.048 34.1872 25.976H30.9232C30.9872 24.056 31.5552 22.6 32.6272 21.608C33.7152 20.616 35.0912 20.12 36.7552 20.12C38.5792 20.12 39.9792 20.608 40.9552 21.584C41.9312 22.544 42.4192 23.816 42.4192 25.4C42.4192 26.648 42.0832 27.84 41.4112 28.976C40.7392 30.112 39.9712 31.104 39.1072 31.952C38.2432 32.784 37.1152 33.792 35.7232 34.976H42.8032V37.76H30.9472V35.264L32.1952 34.208Z" fill="white"/>
</svg>
