<svg width="90" height="90" viewBox="0 0 90 90" fill="none" xmlns="http://www.w3.org/2000/svg">
<rect x="2.5" y="2.5" width="85" height="85" rx="7.5" fill="#51B56D" stroke="#51B56D" stroke-width="5"/>
<path d="M65.4584 52.125L60.25 61.1458C59.2292 62.9375 57.3334 63.875 55.4167 63.75H51.25V67.9167L46.0417 58.5417L51.25 49.1667V53.3333H57.125L52.5 45.3125L61.5209 40.1042L65.2709 46.6042C66.3542 48.2083 66.5 50.3542 65.4584 52.125ZM39.1875 26.375H49.6042C51.6459 26.375 53.4167 27.5625 54.2709 29.2708L56.3542 32.8958L59.9584 30.8125L54.4584 40L43.7292 40.1875L47.3334 38.1042L44.3959 33L39.7917 41.0208L30.75 35.8125L34.5 29.3125C35.3542 27.5833 37.125 26.375 39.1875 26.375ZM30.5209 61.1667L25.3125 52.1458C24.2917 50.375 24.4375 48.25 25.5 46.6458L27.5834 43.0417L23.9792 40.9583L34.6875 41.125L40.2084 50.3333L36.6042 48.25L33.6667 53.3333H42.9167V63.75H35.4167C34.4407 63.8206 33.4644 63.616 32.5989 63.1593C31.7334 62.7026 31.0134 62.0122 30.5209 61.1667Z" fill="white"/>
</svg>
