<svg width="80" height="80" viewBox="0 0 80 80" fill="none" xmlns="http://www.w3.org/2000/svg">
<path d="M71.4404 50.6396L71.4343 50.6502L63.101 65.0835L63.0967 65.091C61.7585 67.4397 59.2805 68.6675 56.7643 68.5034L56.7156 68.5002H56.6667H50H48.5V70.0002V70.8782L43.3826 61.6669L48.5 52.4556V53.3335V54.8335H50H59.4H61.9965L60.6995 52.5842L54.0484 41.0496L65.8839 34.2162L71.1341 43.3164L71.1606 43.3624L71.1903 43.4064C72.6165 45.5182 72.7993 48.3296 71.4404 50.6396ZM53.4917 15.5043L53.5112 15.5432L53.5328 15.581L56.8662 21.381L57.6155 22.6847L58.9174 21.9322L59.6741 21.4948L54.2742 30.515L43.7338 30.6992L44.484 30.2655L45.7802 29.5163L45.0334 28.2187L40.3334 20.052L39.0317 17.7901L37.7325 20.0534L31.1137 31.5839L19.2494 24.7496L24.4993 15.6498L24.5235 15.6079L24.5449 15.5645C25.6743 13.2782 28.005 11.7002 30.7 11.7002H47.3667C50.038 11.7002 52.3667 13.2544 53.4917 15.5043ZM9.79957 50.6844C8.46491 48.3692 8.64797 45.5795 10.0506 43.4618L10.0758 43.4237L10.0987 43.3842L13.432 37.6175L14.1827 36.3189L12.884 35.5682L12.1141 35.1232L22.6425 35.287L28.0672 44.335L27.3174 43.9015L26.0186 43.1508L25.268 44.4497L20.568 52.583L19.2675 54.8335H21.8667H35.1667V68.5002H24.6667H24.6125L24.5584 68.5041C23.2768 68.5969 21.9948 68.3281 20.8583 67.7284C19.7226 67.1292 18.7777 66.2235 18.1309 65.1142C18.1304 65.1134 18.1299 65.1126 18.1295 65.1118L9.79957 50.6844Z" fill="#51B56D" stroke="#333333" stroke-width="3"/>
</svg>
