<svg width="70" height="70" viewBox="0 0 70 70" fill="none" xmlns="http://www.w3.org/2000/svg">
<path d="M5.52436 34.562L3.47929 33.8803L3.55084 36.0348C3.72823 41.3761 5.26233 46.5844 8.00864 51.1691C10.755 55.7538 14.6231 59.564 19.2487 62.2408L21.5 63.5436V60.9425V55V54.3787L21.0607 53.9393L14.2932 47.1718L14.293 47.1717C14.1055 46.9843 14.0002 46.7301 14 46.465C14 46.4649 14 46.4648 14 46.4647V43.2575V42.8033L13.7481 42.4254L9.64309 36.2679L9.35761 35.8397L8.86936 35.677L5.52436 34.562ZM27.1471 63.8129L26.6208 65.3909L28.2446 65.7518C30.4617 66.2445 32.7257 66.4954 34.997 66.5H35.0014C39.9627 66.4954 44.8525 65.3171 49.2714 63.0613C53.6902 60.8056 57.5127 57.5365 60.4266 53.521L60.7964 53.0112L60.6916 52.3902L58.9791 42.2502L58.8522 41.4989L58.1707 41.1583L49.8132 36.9808L49.8131 36.9807C49.6223 36.8854 49.4671 36.7316 49.3699 36.5418C49.2728 36.3521 49.2389 36.1362 49.2731 35.9257L49.2733 35.9245L51.0753 24.783C51.1238 24.5648 51.2441 24.3689 51.4173 24.2269C51.5959 24.0803 51.8198 24.0001 52.0509 24H62.235H64.5785L63.5972 21.8719C61.8807 18.1493 59.4559 14.7965 56.4581 12.0006L55.1664 10.7958L54.1868 12.2657L51.9947 15.555C51.9034 15.6919 51.7797 15.8042 51.6345 15.8818C51.4894 15.9594 51.3273 16 51.1627 16H51.1625H47.5C47.2348 16 46.9804 15.8946 46.7929 15.7071C46.6054 15.5196 46.5 15.2652 46.5 15V6.75V5.69544L45.5077 5.33852C41.4338 3.87325 37.0993 3.27319 32.7806 3.57663C28.4619 3.88007 24.2539 5.08034 20.425 7.10088L18.9556 7.87627L19.8766 9.25902L22.5891 13.3315L23.0343 14H23.8375H30.6925H31.5629L31.9948 13.2443L33.3881 10.8065L35.1235 11.7982L26.1976 27.4209L26 27.7667V28.165V33.5H24V30V28.5H22.5H18.535H17.9137L17.4744 28.9393L12.1569 34.2568L11.2875 35.1262L11.9692 36.1492L15.0892 40.8317L15.5345 41.5H16.3375H28.6625H28.6627C28.8273 41.5 28.9894 41.5406 29.1345 41.6182C29.2797 41.6958 29.4034 41.8081 29.4947 41.945L33.0219 47.2369L33.0224 47.2378C33.1125 47.3727 33.1684 47.5275 33.1853 47.6888C33.2022 47.8502 33.1796 48.0132 33.1194 48.1638L28.6073 59.4429L28.591 59.4837L28.5771 59.5254L27.1471 63.8129ZM16.3884 7.14577C21.8972 3.4649 28.3738 1.50017 34.9991 1.5C43.8809 1.51035 52.396 5.04322 58.6764 11.3236C64.957 17.6042 68.4899 26.1196 68.5 35.0017C68.4997 41.6268 66.535 48.103 62.8543 53.6116C59.1732 59.1206 53.9412 63.4144 47.8199 65.95C41.6986 68.4855 34.9629 69.1489 28.4645 67.8563C21.9661 66.5637 15.997 63.3731 11.3119 58.6881C6.62688 54.003 3.43631 48.0339 2.14371 41.5355C0.851104 35.0372 1.51452 28.3014 4.05005 22.1801C6.58559 16.0588 10.8794 10.8268 16.3884 7.14577Z" fill="#51B56D" stroke="#333333" stroke-width="3"/>
</svg>
