<svg width="68" height="67" viewBox="0 0 68 67" fill="none" xmlns="http://www.w3.org/2000/svg">
<path d="M65.4404 40.6396L65.4343 40.6502L57.101 55.0835L57.0967 55.091C55.7585 57.4397 53.2805 58.6675 50.7643 58.5034L50.7156 58.5002H50.6667H44H42.5V60.0002V60.8782L37.3826 51.6669L42.5 42.4556V43.3335V44.8335H44H53.4H55.9965L54.6995 42.5842L48.0484 31.0496L59.8839 24.2162L65.1341 33.3164L65.1606 33.3624L65.1903 33.4064C66.6165 35.5182 66.7993 38.3296 65.4404 40.6396ZM47.4917 5.50435L47.5112 5.54325L47.5328 5.58095L50.8662 11.381L51.6155 12.6847L52.9174 11.9322L53.6741 11.4948L48.2742 20.515L37.7338 20.6992L38.484 20.2655L39.7802 19.5163L39.0334 18.2187L34.3334 10.052L33.0317 7.79008L31.7325 10.0534L25.1137 21.5839L13.2494 14.7496L18.4993 5.64978L18.5235 5.60789L18.5449 5.56453C19.6743 3.27821 22.005 1.7002 24.7 1.7002H41.3667C44.038 1.7002 46.3667 3.25438 47.4917 5.50435ZM3.79957 40.6844C2.46491 38.3692 2.64797 35.5795 4.0506 33.4618L4.07583 33.4237L4.09869 33.3842L7.43202 27.6175L8.18269 26.3189L6.88403 25.5682L6.11411 25.1232L16.6425 25.287L22.0672 34.335L21.3174 33.9015L20.0186 33.1508L19.268 34.4497L14.568 42.583L13.2675 44.8335H15.8667H29.1667V58.5002H18.6667H18.6125L18.5584 58.5041C17.2768 58.5969 15.9948 58.3281 14.8583 57.7284C13.7226 57.1292 12.7777 56.2235 12.1309 55.1142C12.1304 55.1134 12.1299 55.1126 12.1295 55.1118L3.79957 40.6844Z" fill="#51B56D" stroke="#333333" stroke-width="3"/>
</svg>
