<svg width="64" height="67" viewBox="0 0 64 67" fill="none" xmlns="http://www.w3.org/2000/svg">
<path d="M4.87036 64.8332C5.02953 60.0395 5.58686 55.2666 6.537 50.5635L6.539 50.5536L6.54087 50.5437C7.50327 45.4255 9.21289 40.4767 11.6148 35.856C12.8757 33.6845 14.3576 31.6492 16.037 29.7825C17.7882 27.9237 19.769 26.2953 21.9314 24.9366L21.9314 24.9366L21.9387 24.932C26.4797 22.0421 31.5727 20.1295 36.8934 19.3159L36.7238 16.3343C30.6846 16.1042 24.6754 17.2917 19.1776 19.8017C13.442 22.4096 8.53454 26.5456 4.99279 31.7567L4.98041 31.7749L4.96856 31.7934C4.14909 33.0788 3.38194 34.3961 2.66887 35.7422C1.91748 32.1933 1.84809 28.5215 2.47758 24.9251L2.47774 24.9242C3.12531 21.2107 4.69146 17.7181 7.03361 14.7645C9.37575 11.8109 12.4195 9.49007 15.8877 8.01326L15.901 8.00761L15.9142 8.0017C22.6261 4.98977 30.067 3.98725 37.3367 5.11543L37.3505 5.11757L37.3643 5.11945C44.7858 6.13025 52.341 5.37665 59.4166 2.91991L61.6189 2.1858L61.8351 4.45578C61.8386 4.56875 61.8474 4.74044 61.8589 4.96648C61.9788 7.31726 62.3986 15.5458 60.3647 24.7254C58.0737 35.0657 52.7496 46.2113 40.7131 51.3528C36.3845 53.1845 31.7326 54.1299 27.0323 54.1332L27.0227 54.1332L27.0131 54.1333C22.0133 54.2008 17.0792 52.9892 12.6794 50.6133L10.9113 49.6586L10.4987 51.6251C9.58425 55.9831 8.95129 60.3949 8.60355 64.8332H4.87036Z" fill="#51B56D" stroke="#333333" stroke-width="3"/>
</svg>
