<svg width="22" height="14" viewBox="0 0 22 14" fill="none" xmlns="http://www.w3.org/2000/svg">
<path d="M20.6211 12.7109L1.37891 12.7109C1.27507 12.7109 1.22064 12.6606 1.19948 12.6206C1.18839 12.5996 1.18617 12.5817 1.1874 12.5688C1.1884 12.5583 1.19256 12.5389 1.21617 12.5114L10.8349 1.35781C10.8351 1.35759 10.8353 1.35736 10.8355 1.35713C10.8694 1.31867 10.9277 1.28979 11.0011 1.28979C11.075 1.28979 11.1315 1.31892 11.1634 1.35583L11.542 1.0293L11.1634 1.35584L20.7838 12.5114C20.7839 12.5115 20.784 12.5115 20.7841 12.5116C20.8075 12.539 20.8116 12.5583 20.8126 12.5688C20.8138 12.5817 20.8116 12.5996 20.8005 12.6206C20.7794 12.6606 20.7249 12.7109 20.6211 12.7109Z" stroke="black"/>
</svg>
