<svg width="90" height="90" viewBox="0 0 90 90" fill="none" xmlns="http://www.w3.org/2000/svg">
<rect x="2.5" y="2.5" width="85" height="85" rx="7.5" fill="#51B56D" stroke="#51B56D" stroke-width="5"/>
<path d="M45 23.125C40.6735 23.125 36.4442 24.4079 32.8469 26.8116C29.2496 29.2153 26.4458 32.6317 24.7901 36.6288C23.1345 40.6259 22.7013 45.0243 23.5453 49.2676C24.3894 53.5109 26.4728 57.4087 29.532 60.468C32.5913 63.5272 36.4891 65.6106 40.7324 66.4547C44.9757 67.2987 49.3741 66.8655 53.3712 65.2099C57.3683 63.5542 60.7848 60.7504 63.1884 57.1531C65.5921 53.5558 66.875 49.3265 66.875 45C66.8684 39.2004 64.5616 33.6403 60.4607 29.5393C56.3597 25.4384 50.7996 23.1316 45 23.125ZM26.2813 45.6156L28.3719 46.3125L30.9375 50.1609V52.1656C30.9376 52.58 31.1023 52.9774 31.3953 53.2703L35.625 57.5V61.2141C32.8717 59.6208 30.5693 57.3529 28.9346 54.624C27.3 51.895 26.3868 48.7949 26.2813 45.6156ZM45 63.75C43.6483 63.7472 42.3008 63.5979 40.9813 63.3047L41.875 60.625L44.6953 53.575C44.7893 53.3396 44.8246 53.0849 44.7982 52.8328C44.7718 52.5808 44.6845 52.3389 44.5438 52.1281L42.3391 48.8203C42.1963 48.6064 42.003 48.431 41.7762 48.3097C41.5495 48.1884 41.2962 48.125 41.0391 48.125H33.3359L31.3859 45.1984L34.7094 41.875H37.1875V45H40.3125V40.7281L46.3563 30.15L43.6438 28.6L42.3078 30.9375H38.0234L36.3281 28.3922C38.606 27.1902 41.1094 26.4761 43.6786 26.2956C46.2478 26.1151 48.8265 26.472 51.25 27.3437V32.5C51.25 32.9144 51.4146 33.3118 51.7077 33.6049C52.0007 33.8979 52.3981 34.0625 52.8125 34.0625H55.1016C55.3587 34.0625 55.612 33.9991 55.8387 33.8778C56.0655 33.7565 56.2588 33.5811 56.4016 33.3672L57.7719 31.3109C59.5565 32.9754 61 34.9714 62.0219 37.1875H55.6563C55.2952 37.1877 54.9453 37.313 54.6662 37.542C54.387 37.771 54.1958 38.0897 54.125 38.4437L52.9953 45.4281C52.9419 45.757 52.9949 46.0943 53.1467 46.3908C53.2985 46.6874 53.5411 46.9276 53.8391 47.0766L59.0625 49.6875L60.1328 56.025C58.3985 58.415 56.1234 60.3608 53.4934 61.7033C50.8633 63.0459 47.9529 63.7473 45 63.75Z" fill="white"/>
</svg>
