<svg width="40" height="40" viewBox="0 0 40 40" fill="none" xmlns="http://www.w3.org/2000/svg">
<path d="M29.5826 15.1897C29.4687 14.7657 29.2455 14.379 28.9353 14.0684C28.625 13.7577 28.2386 13.534 27.8147 13.4196C26.2545 13 20 13 20 13C20 13 13.7455 13 12.1853 13.4174C11.7612 13.5314 11.3746 13.755 11.0643 14.0657C10.754 14.3764 10.5309 14.7633 10.4174 15.1875C10 16.75 10 20.0089 10 20.0089C10 20.0089 10 23.2679 10.4174 24.8281C10.6473 25.6897 11.3259 26.3683 12.1853 26.5982C13.7455 27.0179 20 27.0179 20 27.0179C20 27.0179 26.2545 27.0179 27.8147 26.5982C28.6763 26.3683 29.3527 25.6897 29.5826 24.8281C30 23.2679 30 20.0089 30 20.0089C30 20.0089 30 16.75 29.5826 15.1897ZM18.0134 23V17.0179L23.192 19.9866L18.0134 23Z" fill="#51B56D"/>
<rect x="0.5" y="0.5" width="39" height="39" rx="19.5" stroke="#51B56D"/>
</svg>
