<svg width="300" height="300" viewBox="0 0 300 300" fill="none" xmlns="http://www.w3.org/2000/svg">
<path fill-rule="evenodd" clip-rule="evenodd" d="M75.7474 75.0446C87.3406 50.9187 103.134 36.6172 125.948 24.7063C143.8 15.393 158.212 14.564 177.847 14.564C194.166 14.564 213.94 22.5921 226.901 31.6428C239.42 40.3757 250.294 53.7652 256.858 67.9699C269.073 94.4172 266.765 123.752 254.523 149.426C250.778 157.275 244.505 166.491 239.005 172.985C233.547 179.411 225.754 186.306 218.9 191.101C216.427 192.828 213.401 194.652 210.9 196.006L202.554 199.903C199.293 201.008 196.653 202.321 193.102 203.288C167.401 210.294 146.149 211.344 120.738 200.552C115.57 198.355 110.458 195.55 105.787 192.289C103.273 190.534 101.228 189.138 99.0305 187.397L93.1717 182.257C88.7638 178.209 81.1502 167.928 77.9445 162.36C76.5351 159.886 75.4711 157.44 74.2689 154.939C69.4465 145.004 66.0059 131.297 66.0059 116.54C66.0059 99.8753 70.2756 86.4305 75.7474 75.0446V75.0446ZM171.118 181.041C172.058 177.559 176.355 173.621 177.654 171.369C178.676 169.628 177.916 170.954 177.847 167.527C170.856 167.527 148.001 174.022 142.888 174.146C143.469 176.412 148.222 181.58 150.156 183.142C154.412 186.555 153.404 186.955 158.779 190.7C169.018 185.048 169.46 187.107 171.118 181.041ZM188.653 165.538C185.516 165.538 183.236 164.612 183.029 167.403C183.029 167.417 183.734 170.125 183.941 170.388C184.743 171.369 184.853 171.189 186.11 171.493C186.11 167.97 186.995 167.168 188.653 165.538ZM216.606 169.503C217.076 167.417 218.361 164.819 218.195 163.078C218.002 160.964 216.828 159.748 216.606 156.929C214.948 157.067 204.585 160.232 203.258 160.909C205.483 166.09 199.237 167.997 216.606 169.503ZM246.108 151.913C246.95 149.951 247.545 148.652 248.374 146.994C241.852 148.583 235.274 151.361 228.683 152.95C228.614 155.948 227.965 156.459 227.412 158.919C236.573 163.976 230.148 164.391 237.582 166.201C239.972 164.363 244.643 155.312 246.108 151.913ZM96.5018 125.811C99.8043 125.521 101.753 124.084 104.765 123.822C104.502 120.464 103.259 121.5 100.177 118.681C98.6021 117.244 96.6814 115.13 94.7193 114.564L93.9593 121.169C93.7521 122.744 95.8247 124.747 96.5018 125.811V125.811ZM78.7183 131.104C80.8048 130.924 91.1543 127.912 92.7019 127.138C91.9972 124.001 91.6103 125.48 91.4169 121.182C91.1543 115.683 88.6118 109.562 86.3457 104.615L81.2608 105.278C81.2608 101.188 81.8135 96.2135 78.0826 93.3671C78.0826 97.9684 76.8114 101.188 76.8114 106.605V116.54C76.8114 121.998 77.7234 126.682 78.7183 131.104ZM138.453 168.854L149.079 165.358L151.151 162.885C155.324 163.368 150.875 164.957 156.996 163.064L174.669 157.592C173.771 153.585 172.431 149.937 171.353 145.82C170.261 141.66 170.676 140.818 169.46 140.375C166.655 139.367 171.063 142.268 167.401 140.666C165.315 139.754 166.862 140.569 166.793 138.911L166.973 135.94C167.429 134.268 167.028 135.981 167.47 134.903C168.52 132.389 164.596 122.675 163.228 116.54C161.363 116.996 161.294 117.203 158.779 117.203C159.014 120.174 160.603 121.113 160.174 122.951C159.373 126.378 159.276 122.053 159.414 128.451C152.961 126.889 151.87 127.152 151.787 123.158C147.517 124.195 149.631 127.11 146.066 128.451C146.066 120.008 147.006 123.642 147.973 119.842C145.666 120.049 142.529 120.851 139.987 121.459L116.206 126.475L121.222 141.039C120.42 143.54 120.241 142.047 118.873 144.258C120.296 145.474 122.217 146.718 123.502 149.329C125.713 153.889 124.303 152.12 128.283 154.635C129.278 155.658 131.019 158.587 131.53 160.245C129.761 161.448 122.894 161.033 120.655 159.858C119.246 157.648 118.914 157.841 118.445 155.603L116.206 152.107C114.023 149.329 107.031 132.983 106.672 128.451C105.097 128.589 102.084 129.211 100.951 129.777C102.305 131.877 104.779 134.157 106.603 136.479C108.841 139.353 110.651 140.527 107.307 143.692C104.613 142.932 102.485 139.933 100.854 137.833C99.1687 135.636 97.3032 133.328 95.8662 131.104C93.5172 131.104 92.771 131.394 90.7674 131.739L86.3457 133.093C82.8083 133.093 82.5734 133.757 79.3539 133.757C79.575 136.479 81.2884 141.495 82.2556 143.968C86.4286 154.677 89.0402 159.693 95.6866 169.034C104.212 181.014 104.35 179.452 109.573 177.849C113.608 176.606 125.92 172.225 128.918 172.156C127.426 169.241 125.906 168.329 124.663 165.538C124.87 165.399 124.98 165.303 125.036 165.234C125.146 165.247 125.353 165.261 125.699 165.234L129.678 165.869C131.862 166.159 133.713 166.104 135.91 166.519L138.453 168.854ZM135.523 103.661C134.515 99.8062 136.656 94.9699 137.817 92.7038C141.88 93.0493 142.004 95.3845 144.795 97.3328C144.353 98.231 143.455 99.8476 143.068 100.829C142.032 103.44 142.64 101.34 142.902 104.615C145.389 104.021 148.457 103.537 149.092 106.909C149.714 110.294 145.956 109.258 142.902 109.258C143.856 112.988 146.826 110.847 149.88 110.584V105.941C153.528 106.964 150.654 109.161 154.647 108.857C162.606 108.235 160.893 105.14 160.575 103.523C160.34 102.307 160.257 101.893 159.967 100.083C159.635 98.0375 159.193 95.3154 158.876 93.2703C158.033 87.9228 154.329 68.5088 154.329 64.8885C149.314 66.1183 144.381 67.2099 139.116 68.2324C135.413 68.9648 135.33 68.495 133.755 71.9218C130.881 78.1951 127.965 84.4684 121.374 86.8312C113.512 89.6363 114.327 92.9525 110.485 94.0303C110.485 108.083 114.382 108.857 114.313 113.887C114.285 115.503 113.954 116.443 113.926 117.286C113.871 119.041 114.12 118.156 114.299 120.519C117.919 120.422 123.972 117.825 127.896 116.802L139.765 113.265C140.677 112.878 140.498 112.933 140.995 112.56C139.475 111.413 136.145 106.079 135.523 103.661V103.661ZM249.963 142.02C250.764 139.864 252.008 135.373 252.187 133.093C248.153 132.997 245.969 130.578 245.209 127.124L252.823 131.104C254.868 121.97 255.227 111.054 254.149 101.257C253.776 97.8164 253.058 94.9976 252.823 92.0406C251.123 92.8834 243.261 94.3481 240.497 95.0805C229.913 97.8579 230.728 96.8354 231.032 100.027C231.654 106.646 234.763 123.089 232.497 129.459C231.502 132.375 233.091 133.453 230.383 135.553C228.517 137.018 226.403 136.603 223.557 136.244L223.875 129.777C223.142 125.369 223.17 119.137 222.963 114.55C222.755 109.935 221.387 104.864 221.056 100.649L172.762 114.55C172.845 118.695 177.751 135.373 176.742 139.049L175.609 140.679L177.847 141.619L179.409 146.137C179.409 146.179 179.395 147.284 179.409 147.547C179.45 148.376 180.044 153.184 180.376 154.345C181.426 158.035 184.052 154.276 192.453 154.276C191.14 149.163 190.988 156.335 191.195 146.994C194.94 148.044 193.848 150.241 193.088 153.627C196.253 153.627 196.778 152.77 200.08 153.143C206.285 151.982 201.352 154.801 205.165 153.571C206.63 153.102 207.929 152.121 210.236 151.582C212.309 151.112 214.451 150.974 216.606 150.863C222.99 150.531 221.76 150.78 221.581 148.984L221.691 147.049C223.308 146.082 224.607 146.027 227.219 146.58C236.435 148.528 228.02 147.685 243.551 147.851C243.413 147.713 243.247 147.519 243.15 147.409L241.796 145.681C247.475 143.319 248.36 146.358 249.963 142.02V142.02ZM142.902 111.911C139.655 111.911 141.838 111.897 140.995 112.56C143.607 112.339 142.114 112.519 142.902 111.911ZM170.22 104.615C173.716 104.311 178.704 102.984 182.559 102.252C187.064 101.395 190.836 100.704 194.995 99.9858L219.785 96.0063C219.785 90.5482 214.423 76.1777 212.378 71.9494C210.568 68.2048 209.214 64.93 207.196 61.4479L201.352 51.651C196.805 51.7477 164.458 63.1337 159.414 63.562L170.22 104.615ZM218.085 63.3547C221.995 70.1669 226.307 80.2816 228.421 88.3374C229.941 94.1547 224.869 96.0201 252.187 89.3875C249.065 75.3763 240.484 58.173 230.756 48.1689C229.222 46.6075 227.909 45.4606 226.776 43.7058C225.104 44.5348 220.019 45.7232 217.878 46.345C214.976 47.2017 211.881 48.2933 208.979 48.998L218.085 63.3547ZM127.661 41.716C132.345 44.9908 130.646 40.3895 137.817 42.3793C136.256 44.6178 130.204 46.4417 130.204 49.6613C130.204 53.4197 135.288 53.2539 135.288 60.2595C137.444 60.0661 142.446 58.2836 144.74 57.5236C152.229 55.0226 153.169 56.4458 151.967 51.4714L151.732 50.5871C151.704 50.4765 151.663 50.2969 151.649 50.1863L151.165 46.345C143.4 50.6285 143.538 51.955 143.538 41.0528C140.857 39.7124 140.456 40.7626 140.36 36.4238C133.575 36.4238 135.979 39.8368 132.746 41.0528V35.0973C131.088 37.0594 128.366 38.9248 127.661 41.716V41.716ZM158.157 53.627L187.548 48.5006C190.491 47.9064 193.848 47.0082 196.916 47.0082C195.935 43.1669 182.214 31.2283 177.226 28.4647C177.226 31.3112 176.77 31.3526 176.687 33.218C176.549 36.4929 177.391 35.1664 177.032 37.6121C176.549 40.8869 168.672 45.9166 165.605 46.8286C159.76 48.5697 163.104 48.998 157.521 48.998C158.254 52.2728 158.806 50.4351 158.157 53.627V53.627ZM154.343 44.369C156.609 43.7334 156.789 42.4484 159.677 41.3015C162.731 40.0993 162.745 41.0389 165.024 38.9386C170.413 33.9918 166.89 35.0696 169.128 31.2974C169.571 30.5512 172.113 29.3214 170.082 24.651C168.811 21.7078 168.147 23.6146 161.335 19.8562C159.594 26.6546 155.449 24.043 153.072 23.8357C147.725 32.1541 153.431 32.8726 154.343 44.369V44.369ZM178.483 23.8496C188.459 28.976 189.772 30.9105 197.828 37.4601C204.654 43.0149 203.521 45.6403 208.703 44.8112C213.87 43.996 219.536 42.8629 224.248 41.716C222.742 39.5881 216.441 35.194 213.829 33.37C206.036 27.912 191.582 21.6387 182.02 20.0773C179.174 19.6075 179.547 19.8286 176.645 21.2518C176.618 21.2656 175.498 21.7631 175.319 21.846L178.483 23.8496ZM109.117 183.542L119.591 191.156C134.28 200.276 148.498 204.614 167.691 204.614C165.342 200.953 155.076 195.923 149.258 191.363C128.545 175.141 138.107 174.934 120.296 179.065C116.676 179.908 111.743 181.428 107.957 181.428C108.91 183.321 107.183 181.456 109.117 183.542V183.542ZM175.319 21.8598L173.951 21.4867L175.319 21.8598Z" fill="#015629"/>
<path d="M175.9 225.756C180.377 225.41 186.111 223.807 190.547 223.807C190.547 219.386 190.367 217.299 188.778 216.899C188.764 216.899 182.145 217.838 181.137 217.976C155.808 221.306 132.028 217.23 110.5 207.24C107.363 205.789 104.821 204.172 101.781 202.417C91.9563 196.711 83.7208 189.705 76.6185 180.958C72.9705 176.468 71.1742 174.685 67.8718 168.882C66.2274 165.994 64.5279 163.396 63.0355 160.024C46.7996 123.214 51.1798 80.3369 75.1676 48.6111L80.7776 41.868C85.0335 37.4878 88.5985 33.6464 93.2413 29.6945C97.1794 26.3368 103.066 22.3572 107.736 19.649C112.876 16.6643 118.652 13.9836 124.387 11.8281C130.715 9.46521 136.408 8.34597 143.524 6.61874C143.096 4.68424 142.433 2.10031 142.253 0C131.489 0.248721 110.652 9.18886 101.587 13.9007C-12.1473 73.124 24.4838 237.446 175.9 225.756V225.756Z" fill="black"/>
<path d="M62.911 235.138C72.169 231.435 92.5226 232.803 95.5626 235.318C96.9029 236.423 96.1291 235.746 96.1014 237.183C96.0876 237.915 95.9218 239.339 95.8942 240.333C95.8113 243.65 95.8113 243.747 95.2309 246.317C89.5933 245.833 92.6884 243.677 76.1761 243.677C57.1075 243.677 51.8429 270.304 61.7365 282.561C67.2222 289.373 77.323 290.741 85.7104 288.696V272.142H72.3624V261.544H98.409V295.315C98.409 297.581 97.0963 297.249 95.0237 297.747C93.1168 298.216 92.7161 298.355 90.9336 298.783C84.4116 300.344 79.8102 299.957 72.998 299.957C61.391 299.957 49.0794 292.178 45.4176 281.027C44.2846 277.6 43.1377 271.714 43.1377 267.513C43.1377 252.797 49.4663 240.527 62.911 235.138V235.138Z" fill="black"/>
<path fill-rule="evenodd" clip-rule="evenodd" d="M194.665 298.99C193.366 298.244 194.388 297.194 195.217 294.928L217.879 233.743H232.498L253.998 290.783C254.91 293.339 256.43 296.6 256.638 299.294H242.654C241.493 294.099 238.785 289.456 237.583 284.067H212.794C211.398 286.817 207.778 296.13 207.073 299.294C204.931 299.294 195.936 299.723 194.665 298.99V298.99ZM216.607 273.469H233.769L225.506 248.307C223.627 250.559 216.787 271.161 216.607 273.469Z" fill="black"/>
<path fill-rule="evenodd" clip-rule="evenodd" d="M110.68 282.271L122.743 249.813C123.862 246.897 124.732 244.631 125.824 241.785C126.777 239.311 127.717 236.092 128.919 233.743H143.525C143.732 236.216 154.676 264.418 155.781 267.32L165.315 292.482C166.269 294.928 169.046 299.294 165.771 299.294C150.876 299.294 154.137 300.662 150.972 292.206C149.908 289.359 149.135 286.554 147.974 284.067H123.199L117.478 299.294H104.766C105.042 295.964 109.27 286.029 110.68 282.271V282.271ZM129.002 267.596C128.325 269.738 127.441 271.521 127.012 273.469H144.16C143.939 270.567 143.027 269.351 142.184 266.933L137.901 254.165C137.03 251.692 137.003 249.633 135.275 248.307C135.068 250.891 130.163 263.948 129.002 267.596V267.596Z" fill="black"/>
<path d="M187.382 233.743V297.305C187.382 298.838 186.94 299.294 185.475 299.294C177.945 299.294 174.034 300.414 174.034 297.305V235.732C174.034 232.458 179.05 233.743 187.382 233.743Z" fill="black"/>
<path d="M232.497 133.757C235.247 131.836 237.734 129.459 240.747 127.801C240.747 130.067 240.733 131.435 240.042 133.011C236.56 141.053 232.553 135.083 231.226 141.039C232.276 142.545 240.042 145.488 241.797 145.668L243.151 147.409C243.248 147.519 243.413 147.713 243.552 147.851C228.02 147.671 236.435 148.528 227.205 146.566C224.607 146.013 223.309 146.082 221.692 147.05C221.581 146.98 221.388 146.911 221.319 146.911C221.277 146.911 221.042 146.815 220.973 146.828L220.393 147.036C219.536 147.837 219.965 146.676 219.785 148.984H221.581C221.761 150.766 222.991 150.532 216.607 150.863C214.451 150.974 212.31 151.112 210.237 151.582C207.929 152.107 206.63 153.102 205.152 153.572C201.352 154.801 206.285 151.982 200.081 153.143C201.103 152.286 199.832 152.867 201.407 152.369C201.808 152.245 202.817 152.3 203.259 152.3V147.657C199.956 146.856 199.127 145.612 194.36 145.612C190.09 145.612 189.109 146.911 185.475 146.994C184.729 145.53 184.176 143.001 183.03 142.241C181.648 141.301 178.221 141.481 177.848 141.619L175.609 140.679L176.742 139.049C180.515 137.598 182.988 134.848 188.018 134.42C187.88 136.078 186.042 140.887 192.453 141.039C193.655 135.677 198.782 133.66 205.705 134.503C209.104 134.931 220.808 135.332 222.963 136.396C222.963 131.021 222.383 131.491 223.875 129.777L223.557 136.244C226.404 136.603 228.518 137.004 230.383 135.553C233.092 133.453 231.503 132.375 232.497 129.459V133.757Z" fill="#83A58D"/>
<path d="M133.368 127.138C138.798 127.138 139.904 128.437 143.524 130.44C142.17 132.375 141.327 131.919 139.724 134.42C140.733 138.938 143.04 137.957 145.431 141.702C144.837 144.051 143.455 144.99 142.999 147.823C142.322 152.024 143.51 151.706 144.16 154.262L128.283 154.635C124.303 152.12 125.713 153.889 123.502 149.329C122.217 146.718 120.296 145.474 118.873 144.258C120.241 142.047 120.421 143.539 121.222 141.038C124.58 142.393 132.18 129.459 133.368 127.138V127.138Z" fill="#83A58D"/>
<path d="M118.114 160.909C103.799 159.665 95.0519 141.343 89.6215 136.962C87.7976 135.498 87.0238 135.76 86.3467 133.093C91.4178 133.535 96.3232 141.121 101.146 143.484C103.177 144.465 104.02 144.12 105.788 145.267C107.087 146.11 107.82 147.284 109.201 148.334C110.445 149.26 111.716 150.075 113.043 151.015C116.76 153.682 115.82 152.728 116.207 152.107L118.446 155.603H117.478C117.478 158.767 117.907 158.352 118.114 160.909V160.909Z" fill="#85A68E"/>
<path d="M161.958 135.083C161.529 137.004 161.115 139.118 160.686 141.038C153.625 142.752 158.614 142.365 149.881 142.365C150.268 147.118 152.713 144.465 154.62 143.982C156.14 143.595 156.527 143.692 158.144 143.692C157.854 147.27 157.273 144.714 156.389 147.505L162.593 154.276C156.306 152.756 158.849 156.224 154.33 152.949V158.256C152.105 157.634 151.276 156.1 149.632 154.539C145.252 150.379 146.191 144.977 148.61 139.712C162.386 139.712 156.928 136.479 161.958 135.083V135.083Z" fill="#85A68E"/>
<path d="M120.656 162.884V159.858C122.895 161.033 129.762 161.447 131.531 160.245C134.999 162.277 134.681 160.964 138.702 161.959C141.065 162.553 143.027 163.244 144.16 164.874C141.535 165.51 138.951 165.924 135.911 166.519C133.714 166.104 131.863 166.159 129.679 165.869L125.7 165.234C123.931 165.344 125.838 164.75 124.663 165.538L120.656 162.884Z" fill="#85A68E"/>
<path d="M132.484 79.8809C132.65 79.2591 133.783 77.3384 134.142 76.9653C135.137 75.9428 135.717 75.8323 137.182 75.4868C139.918 81.4423 136.367 82.4372 135.275 86.7345H134.004C133.741 83.5979 131.834 82.2852 132.484 79.8809V79.8809Z" fill="#04542A"/>
<path d="M167.042 148.984C169.778 147.478 168.189 149.164 168.949 146.994C166.379 148.417 167.595 146.773 167.042 148.984Z" fill="#ABBCB2"/>
</svg>
